<svg xmlns="http: //www.w3.org/2000/svg" xmlns:xlink="http://www.w3.org/1999/xlink"
	viewBox="0 0 500 500" style="enable-background:new 0 0 500 500" width="32" height="32"
	fill="black">
	<g id="Layer_2">
		<path d="M250,2.1C113.1,2.1,2.1,113.1,2.1,250s111,247.9,247.9,247.9s247.9-111,247.9-247.9S386.9,2.1,250,2.1z M168.4,76.9
		c34.6,0,68.5,0,105.5,0c-5.3,7-9.3,12.3-13.3,17.6c-34.6,0-68.5,0-105.4,0C160.4,87.4,164.4,82.2,168.4,76.9z M145.2,106.6
		c35.1,0,69.2,0,105.3,0c-4,5.2-6.8,8.8-9.8,12.7c-34.1,0-68,0-104,0C140.2,114.1,142.9,110.2,145.2,106.6z M125.9,131.6
		c34.6,0,68.4,0,104.4,0c-4.3,5.8-7.4,10-10.3,13.9c-34.6,0-68.4,0-104.2,0C120,139.8,123.1,135.6,125.9,131.6z M78.9,192.9
		c9.2-12.1,18-23.5,26.9-35c34.1,0,67.8,0,104.2,0c-9.9,12.7-18.3,23.5-27.2,35.1c30.1,37.5,60,74.7,91.4,113.8
		c-36.4,0-70.3,0-106.1,0C139.1,269.8,109.2,231.7,78.9,192.9z M332.2,423c-33.8,0-68.4,0-105.6,0c5.1-6.6,8.9-11.6,12.4-16.1
		c35.1,0,69.3,0,105.7,0C339.9,413.1,336.5,417.5,332.2,423z M354.6,394.5c-34.6,0-68.8,0-105.4,0c4.3-5.6,7.1-9.3,10.1-13.3
		c34.2,0,68.2,0,104.2,0C360.1,386.3,357.4,390.3,354.6,394.5z M373.9,369.2c-34.4,0-68.3,0-104.8,0c5.1-6.3,8.4-10.5,11.4-14.3
		c34.4,0,67.9,0,103.7,0C380,360.7,377,364.9,373.9,369.2z M394.4,342.6c-34.4,0-67.9,0-104,0c9.7-12.6,18-23.4,26.8-34.8
		c-30.3-37.8-60.1-75-90-112.3c0.7-0.8,1.3-1.6,1.9-2.4c33.7,0,67.4,0,102.2,0c29.5,37.6,59.2,75.6,89.9,114.7
		C412.1,319.6,403.1,331.3,394.4,342.6z" />
	</g>
</svg>